PathFileType	4	(X/Y/Z)	c:/Users/goper/Files/vsCode/490R/osim_files/C03/C03_Slow_04.trc
DataRate	CameraRate	NumFrames	NumMarkers	Units                	OrigDataRate	OrigDataStartFrame	OrigNumFrames
250.00	250.00	4	36	mm	250.0	1893	3028
                Frame#	Time	LPSIS			LASIS			LTH1			LTH2			LTH3			LTH4			LLFE			LMFE			LSH1			LSH2			LSH3			LSH4			LLMAL			LMMAL			LCAL			LMTP5			LTOE			LMTP1			RPSIS			RASIS			RTH1			RTH2			RTH3			RTH4			RLFE			RMFE			RSH1			RSH2			RSH3			RSH4			RLMAL			RMMAL			RCAL			RMTP1			RTOE			RMTP5		
		X1	Y1	Z1	X2	Y2	Z2	X3	Y3	Z3	X4	Y4	Z4	X5	Y5	Z5	X6	Y6	Z6	X7	Y7	Z7	X8	Y8	Z8	X9	Y9	Z9	X10	Y10	Z10	X11	Y11	Z11	X12	Y12	Z12	X13	Y13	Z13	X14	Y14	Z14	X15	Y15	Z15	X16	Y16	Z16	X17	Y17	Z17	X18	Y18	Z18	X19	Y19	Z19	X20	Y20	Z20	X21	Y21	Z21	X22	Y22	Z22	X23	Y23	Z23	X24	Y24	Z24	X25	Y25	Z25	X26	Y26	Z26	X27	Y27	Z27	X28	Y28	Z28	X29	Y29	Z29	X30	Y30	Z30	X31	Y31	Z31	X32	Y32	Z32	X33	Y33	Z33	X34	Y34	Z34	X35	Y35	Z35	X36	Y36	Z36

1893	7.56800	-709.43835	1019.50116	336.06912	-891.82147	967.54260	359.52066	-852.85907	613.96832	418.64703	-867.26263	554.50470	407.49271	-924.07996	629.41345	398.32574	-929.05981	568.68152	389.46588	-902.81104	476.79669	388.97101	-872.48346	470.12695	280.39783	-883.35303	281.84824	396.31918	-895.29401	239.77719	389.86670	-939.44006	301.06982	391.04050	-945.42505	254.32570	385.60901	-957.15405	97.05876	348.55167	-969.12799	113.53003	268.44980	-894.50714	62.50338	315.55280	-1098.93176	52.86071	351.87463	-1124.95813	75.20087	296.54593	-1099.03064	59.40252	257.91437	-705.96973	1004.41113	224.29890	-870.70007	951.32867	157.72488	-676.17584	591.62390	173.29295	-667.32159	531.24329	184.86331	-729.22437	581.82086	136.76918	-727.16876	519.65881	140.96269	-701.58362	450.49094	155.27528	-734.00922	456.03558	263.07156	-508.53653	382.06805	182.86523	-477.56287	346.56024	187.68504	-543.39990	336.51669	158.49420	-507.81949	311.23972	165.17607	-397.56119	203.75826	201.80545	-423.22162	194.97635	277.41925	-323.06125	232.74068	247.73167	-437.54562	66.42535	290.02460	-460.59744	56.90123	250.58533	-399.52679	69.27241	188.75563
1894	7.57200	-714.41931	1020.32452	335.97821	-896.76892	968.19501	359.84079	-856.21729	614.70471	419.08157	-870.32867	555.21802	407.83038	-927.54590	629.81451	398.44202	-932.18854	568.97607	389.56802	-905.07727	477.05402	389.44193	-874.65350	470.77393	280.81903	-884.84387	282.00647	396.34619	-896.28394	240.06796	389.84830	-940.98657	301.00760	391.08188	-946.30762	254.31801	385.43713	-957.52057	97.05885	348.41800	-968.68042	112.73533	268.41348	-894.60663	62.57803	315.58685	-1099.12488	52.68109	351.63885	-1125.13904	74.53233	296.26102	-1099.15173	58.84791	257.63846	-711.01849	1004.90765	224.16260	-876.76343	951.83789	158.58542	-684.61047	590.05499	173.35269	-676.55792	529.47906	184.88934	-737.57520	580.99896	136.46666	-736.26849	518.82837	140.46194	-711.28644	449.67432	154.47275	-744.66449	454.84311	262.20053	-517.27386	383.54904	182.80391	-486.41672	348.40015	187.34962	-551.94611	337.46799	157.81882	-516.08154	313.28256	165.41794	-404.76620	207.18239	201.26877	-430.45721	197.77396	277.21512	-331.93414	238.78877	247.15956	-441.27356	68.52533	289.53918	-464.14313	57.33883	250.16855	-403.44077	72.15246	188.87067
1895	7.57600	-719.47076	1021.09485	335.93021	-901.99280	969.22797	360.04642	-859.60010	615.38037	419.38693	-873.40674	555.83557	408.15384	-930.97595	630.11719	398.68231	-935.24176	569.13568	389.83490	-907.55286	477.14941	389.82034	-876.83063	471.35422	281.12241	-886.11578	282.23941	396.30475	-897.24524	240.24600	389.76328	-942.22705	301.02463	391.27026	-947.34906	254.26334	385.52310	-957.03656	96.97520	348.66324	-968.96686	112.53664	268.30466	-894.73859	62.64020	315.59314	-1099.31641	52.48509	351.47787	-1125.28235	73.79861	295.97006	-1099.30945	58.35343	257.43399	-716.03015	1005.36633	224.10463	-880.68018	952.33282	158.53804	-693.11200	588.48334	173.44417	-685.78003	527.62305	184.73190	-745.90045	580.17670	136.25127	-745.40192	518.03204	139.97617	-720.98291	448.92288	153.76889	-755.04504	453.65253	261.34537	-527.29755	384.91150	181.89011	-495.45496	350.09097	186.92638	-560.81628	338.45084	157.23264	-525.30981	313.87650	164.83577	-413.12778	208.63344	202.54352	-438.06116	200.54765	276.95932	-341.31830	244.75203	246.63142	-445.19122	70.70792	288.98846	-468.01132	57.62913	249.69434	-407.63470	75.05362	188.99883
1896	7.58000	-724.62701	1021.75427	335.87787	-906.79187	969.67853	360.27536	-862.85730	616.00098	419.65744	-876.30615	556.31860	408.47119	-934.27209	630.30084	398.89288	-938.18762	569.28955	390.04889	-909.77478	477.33731	390.16110	-878.96490	471.87256	281.37808	-887.32355	282.38013	396.16162	-898.25439	240.39117	389.61673	-943.52283	300.96246	391.35468	-948.36804	254.20105	385.46951	-957.32135	96.98566	348.48859	-969.19391	112.32167	268.23508	-894.82928	62.66000	315.63507	-1099.47595	52.28619	351.38406	-1124.93103	72.92726	295.40283	-1099.45410	57.91528	257.28366	-720.96918	1005.78943	224.07690	-885.51807	952.81268	158.94162	-701.66174	586.97308	173.56190	-695.18213	525.84521	184.97072	-754.26605	579.45642	135.90758	-754.50061	517.19849	139.50995	-730.96631	448.20154	153.08897	-764.71863	452.85730	261.11258	-536.81335	386.28342	181.47086	-505.00244	351.74579	186.30501	-569.88757	339.37253	156.74622	-533.92926	315.20886	164.46939	-421.18500	212.20444	202.18158	-445.66382	203.25952	276.75021	-351.15057	250.44664	246.04205	-449.31769	72.80523	288.55136	-472.02142	57.97795	249.21780	-412.10132	77.94166	189.13403
